<?xml version="1.0" standalone="no"?><!DOCTYPE svg PUBLIC "-//W3C//DTD SVG 1.1//EN" "http://www.w3.org/Graphics/SVG/1.1/DTD/svg11.dtd"><svg t="1531392318039" class="icon" style="" viewBox="0 0 1024 1024" version="1.1" xmlns="http://www.w3.org/2000/svg" p-id="95559" xmlns:xlink="http://www.w3.org/1999/xlink" width="40" height="40"><defs><style type="text/css"></style></defs><path d="M385.024 836.096l12.8-78.848H238.08L327.68 177.152c0-2.048 0-2.048 2.048-6.144 0 0 2.048-2.048 6.144-2.048H558.08c74.752 0 123.904 16.896 151.552 47.104 10.752 12.8 19.456 27.648 25.6 45.056 2.048 21.504 2.048 40.448 0 64v19.456l12.8 6.144c8.704 6.144 19.456 10.752 25.6 19.456 10.752 12.8 19.456 27.648 21.504 47.104 2.048 21.504 2.048 44.544-2.048 66.048-6.656 27.648-12.8 51.2-27.648 74.752-10.752 19.456-25.6 36.352-45.056 47.104-16.896 10.752-38.4 21.504-57.344 27.648-25.6 6.144-47.104 8.704-70.656 8.704h-25.6c-25.6 0-47.104 19.456-51.2 45.056v8.704l-21.504 136.704v6.144s0 2.048-2.048 2.048h-2.048c-0.512-6.144-104.96-4.096-104.96-4.096z" fill="#253B80" p-id="95560"></path><path d="M777.728 326.144c0 6.656-2.048 8.704-2.048 14.848-31.744 159.744-134.144 210.944-266.752 210.944H440.32c-16.896 0-27.648 10.752-31.744 27.648l-34.304 221.696-8.704 64c-2.048 8.704 6.144 16.896 14.848 19.456h123.904c14.848 0 25.6-10.752 27.648-25.6v-6.144l23.552-144.896 2.048-8.704c2.048-14.848 14.848-25.6 27.648-25.6h16.896c117.248 0 204.8-49.152 234.496-185.856 10.752-57.344 6.144-106.496-23.552-138.752-11.776-7.68-20.48-16.384-35.328-23.04z" fill="#179BD7" p-id="95561"></path><path d="M745.472 313.344c-6.144 0-8.704-2.048-14.848-2.048s-10.752-2.048-14.848-2.048c-19.456-2.048-40.448-6.144-59.904-6.144h-179.2c-14.848 0-25.6 10.752-27.648 25.6l-36.352 245.248v6.144c2.048-16.896 16.896-27.648 31.744-27.648h68.096c132.096 0 236.544-53.248 266.752-210.944 0-6.144 2.048-8.704 2.048-14.848-8.704-2.048-16.896-8.704-25.6-10.752l-10.24-2.56c0 2.56 0 0 0 0z" fill="#222D65" p-id="95562"></path><path d="M449.024 330.752c2.048-14.848 14.848-25.6 27.648-25.6h179.2c19.456 0 40.448 0 59.904 6.144 6.656 0 10.752 2.048 14.848 2.048 6.656 0 8.704 2.048 14.848 2.048l6.144 2.048c8.704 2.048 16.896 6.144 25.6 10.752 8.704-57.856 0-98.304-31.744-132.096-34.304-40.448-98.304-57.344-177.152-57.344H337.92c-16.896 0-27.648 10.752-32.256 27.648L212.48 776.704c-2.048 10.752 6.144 19.456 16.896 23.552h144.896l36.352-226.304c2.048 0 38.4-243.2 38.4-243.2z" fill="#253B80" p-id="95563"></path></svg>